<svg width="16" height="18" fill="none" xmlns="http://www.w3.org/2000/svg"><path d="M13.732 6.266h.083a.62.62 0 01.56.589l-.008.171-.262 3.21-.275 3.132c-.058.625-.11 1.152-.155 1.567-.156 1.447-1.095 2.342-2.511 2.368-2.206.041-4.327.04-6.386-.004-1.375-.029-2.3-.933-2.453-2.358l-.106-1.05-.186-2.035-.19-2.234-.217-2.682a.62.62 0 01.56-.673.612.612 0 01.643.489L2.854 7l.204 2.515.223 2.605c.1 1.129.186 2.042.255 2.683.088.812.515 1.23 1.267 1.245 2.044.045 4.148.045 6.339.005.798-.015 1.232-.43 1.321-1.256l.106-1.044.099-1.063.223-2.563.268-3.288a.617.617 0 01.573-.574zM1.11 4.824A.617.617 0 01.5 4.2a.62.62 0 01.527-.62l.082-.005h2.656a.732.732 0 00.69-.508l.025-.093.206-1.052A1.66 1.66 0 016.149.671l.13-.004h3.44c.704 0 1.325.455 1.564 1.158l.04.135.197 1.013a.738.738 0 00.622.595l.093.006h2.655c.337 0 .61.28.61.625a.62.62 0 01-.527.62l-.083.005H1.11zm8.61-2.907H6.28a.437.437 0 00-.385.231l-.022.057-.197 1.014a2.04 2.04 0 01-.104.356h4.858a2.04 2.04 0 01-.072-.219l-.032-.138-.189-.974a.435.435 0 00-.344-.321l-.072-.006z" fill="#FF7CA3"/></svg>