<svg width="20" height="21" fill="none" xmlns="http://www.w3.org/2000/svg"><path d="M15.198 12.227c1.729 0 3.135 1.388 3.135 3.095 0 1.706-1.406 3.095-3.135 3.095-1.73 0-3.136-1.389-3.136-3.095 0-1.707 1.406-3.095 3.136-3.095zm0 1.452c-.919 0-1.665.736-1.665 1.643 0 .906.746 1.643 1.665 1.643.918 0 1.664-.737 1.664-1.643 0-.907-.746-1.643-1.664-1.643zm-6.767.917a.73.73 0 01.735.726c0 .4-.33.725-.735.725H2.402a.73.73 0 01-.735-.725c0-.401.33-.726.735-.726h6.029zM4.8 2.583c1.73 0 3.136 1.39 3.136 3.095 0 1.706-1.406 3.095-3.135 3.095-1.729 0-3.135-1.389-3.135-3.095 0-1.706 1.406-3.095 3.135-3.095zm0 1.452c-.917 0-1.664.737-1.664 1.643s.747 1.643 1.665 1.643 1.664-.737 1.664-1.643-.746-1.643-1.664-1.643zm12.797.918a.73.73 0 01.735.725c0 .401-.33.726-.735.726h-6.03a.73.73 0 01-.735-.726c0-.4.33-.725.736-.725h6.029z" fill="#fff"/></svg>